<?xml version="1.0" encoding="UTF-8" standalone="no"?>
<svg
   width="61.599998"
   height="33.897476"
   viewBox="0 0 61.599998 33.897476"
   fill="none"
   version="1.1"
   id="svg1037"
   sodipodi:docname="to_logo_rgb.svg"
   inkscape:version="1.1 (c68e22c387, 2021-05-23)"
   inkscape:export-filename="/home/stadolf/work/takeover/public/to_logo_rgb.png"
   inkscape:export-xdpi="1200.424"
   inkscape:export-ydpi="1200.424"
   xmlns:inkscape="http://www.inkscape.org/namespaces/inkscape"
   xmlns:sodipodi="http://sodipodi.sourceforge.net/DTD/sodipodi-0.dtd"
   xmlns="http://www.w3.org/2000/svg"
   xmlns:svg="http://www.w3.org/2000/svg">
  <defs
     id="defs1041">
    <mask
       id="path-1-inside-1_43_12-3"
       fill="#000000">
      <path
         fill-rule="evenodd"
         clip-rule="evenodd"
         d="M 9.6,0 H 22.4 V 32 H 9.6 V 22 H 0 V 10 H 9.6 Z M 40,32 C 48.8366,32 56,24.8366 56,16 56,7.16344 48.8366,0 40,0 31.1634,0 24,7.16344 24,16 c 0,8.8366 7.1634,16 16,16 z"
         id="path1030-6" />
    </mask>
    <mask
       id="path-1-inside-1_43_12-3-3"
       fill="#000000">
      <path
         fill-rule="evenodd"
         clip-rule="evenodd"
         d="M 9.6,0 H 22.4 V 32 H 9.6 V 22 H 0 V 10 H 9.6 Z M 40,32 C 48.8366,32 56,24.8366 56,16 56,7.16344 48.8366,0 40,0 31.1634,0 24,7.16344 24,16 c 0,8.8366 7.1634,16 16,16 z"
         id="path1030-6-5" />
    </mask>
    <mask
       id="path-1-inside-1_43_12-3-3-9"
       fill="#000000">
      <path
         fill-rule="evenodd"
         clip-rule="evenodd"
         d="M 9.6,0 H 22.4 V 32 H 9.6 V 22 H 0 V 10 H 9.6 Z M 40,32 C 48.8366,32 56,24.8366 56,16 56,7.16344 48.8366,0 40,0 31.1634,0 24,7.16344 24,16 c 0,8.8366 7.1634,16 16,16 z"
         id="path1030-6-5-1" />
    </mask>
  </defs>
  <sodipodi:namedview
     id="namedview1039"
     pagecolor="#ffffff"
     bordercolor="#666666"
     borderopacity="1.0"
     inkscape:pageshadow="2"
     inkscape:pageopacity="0.0"
     inkscape:pagecheckerboard="0"
     showgrid="false"
     fit-margin-top="0"
     fit-margin-left="0"
     fit-margin-right="0"
     fit-margin-bottom="0"
     inkscape:zoom="12.366071"
     inkscape:cx="35.621661"
     inkscape:cy="8.3292419"
     inkscape:window-width="2589"
     inkscape:window-height="1147"
     inkscape:window-x="730"
     inkscape:window-y="225"
     inkscape:window-maximized="0"
     inkscape:current-layer="svg1037" />
  <mask
     id="path-1-inside-1_43_12"
     fill="#000000">
    <path
       fill-rule="evenodd"
       clip-rule="evenodd"
       d="M 9.6,0 H 22.4 V 32 H 9.6 V 22 H 0 V 10 H 9.6 Z M 40,32 C 48.8366,32 56,24.8366 56,16 56,7.16344 48.8366,0 40,0 31.1634,0 24,7.16344 24,16 c 0,8.8366 7.1634,16 16,16 z"
       id="path1030" />
  </mask>
  <path
     d="m 22.4,0 h 2 v -2 h -2 z M 9.6,0 v -2 h -2 v 2 z m 12.8,32 v 2 h 2 V 32 Z M 9.6,32 h -2 v 2 h 2 z m 0,-10 h 2 v -2 h -2 z M 0,22 h -2 v 2 H 0 Z M 0,10 V 8 h -2 v 2 z m 9.6,0 v 2 h 2 V 10 Z M 22.4,-2 H 9.6 v 4 h 12.8 z m 2,34 V 0 h -4 V 32 Z M 9.6,34 H 22.4 V 30 H 9.6 Z m -2,-12 v 10 h 4 V 22 Z M 0,24 H 9.6 V 20 H 0 Z M -2,10 V 22 H 2 V 10 Z M 9.6,8 H 0 v 4 h 9.6 z m -2,-8 v 10 h 4 V 0 Z M 54,16 c 0,7.732 -6.268,14 -14,14 v 4 c 9.9411,0 18,-8.0589 18,-18 z M 40,2 c 7.732,0 14,6.26801 14,14 h 4 C 58,6.05887 49.9411,-2 40,-2 Z M 26,16 C 26,8.26801 32.268,2 40,2 V -2 C 30.0589,-2 22,6.05887 22,16 Z M 40,30 C 32.268,30 26,23.732 26,16 h -4 c 0,9.9411 8.0589,18 18,18 z"
     fill="#000000"
     mask="url(#path-1-inside-1_43_12)"
     id="path1035"
     transform="translate(3.6,0.787004)"
     inkscape:export-filename="/home/stadolf/work/takeover/public/to_logo_rgb.png"
     inkscape:export-xdpi="1200.424"
     inkscape:export-ydpi="1200.424" />
  <path
     fill-rule="evenodd"
     clip-rule="evenodd"
     d="M 9.6,1.1913364 H 22.4 V 33.191334 H 9.6 v -10 H 0 v -12 H 9.6 Z M 40,33.191334 c 8.8366,0 16,-7.1634 16,-16 C 56,8.3547737 48.8366,1.1913364 40,1.1913364 c -8.8366,0 -16,7.1634373 -16,15.9999976 0,8.8366 7.1634,16 16,16 z"
     fill="#000000"
     id="path1033-7"
     style="fill:#0000ff"
     inkscape:export-filename="/home/stadolf/work/takeover/public/to_logo_rgb.png"
     inkscape:export-xdpi="1200.424"
     inkscape:export-ydpi="1200.424" />
  <path
     fill-rule="evenodd"
     clip-rule="evenodd"
     d="m 10.472206,0.3018061 h 12.8 V 32.301808 h -12.8 V 22.301807 h -9.6 V 10.301808 h 9.6 z m 30.4,32.0000019 c 8.836601,0 16.000001,-7.163401 16.000001,-16.000001 0,-8.8365603 -7.1634,-16.0000009 -16.000001,-16.0000009 -8.8366,0 -16,7.1634406 -16,16.0000009 0,8.836601 7.1634,16.000001 16,16.000001 z"
     fill="#000000"
     id="path1033-7-6-2-0"
     style="fill:#00ff00"
     inkscape:export-filename="/home/stadolf/work/takeover/public/to_logo_rgb.png"
     inkscape:export-xdpi="1200.424"
     inkscape:export-ydpi="1200.424" />
  <path
     fill-rule="evenodd"
     clip-rule="evenodd"
     d="M 11.2,1.595669 H 24 V 33.595664 H 11.2 v -10 H 1.6 v -12 h 9.6 z m 30.4,31.999995 c 8.8366,0 15.999998,-7.1634 15.999998,-16 C 57.599998,8.7591037 50.4366,1.595669 41.6,1.595669 c -8.8366,0 -16,7.1634347 -16,15.999995 0,8.8366 7.1634,16 16,16 z"
     fill="#000000"
     id="path1033-7-6"
     style="fill:#ff0000"
     inkscape:export-filename="/home/stadolf/work/takeover/public/to_logo_rgb.png"
     inkscape:export-xdpi="1200.424"
     inkscape:export-ydpi="1200.424" />
  <path
     fill-rule="evenodd"
     clip-rule="evenodd"
     d="M 15.2,0.05921 H 28 V 32.059209 H 15.2 v -10 H 5.6 v -12 h 9.6 z m 30.4,31.999999 c 8.8366,0 15.999998,-7.1634 15.999998,-16 C 61.599998,7.2226487 54.4366,0.05921 45.6,0.05921 c -8.8366,0 -16,7.1634387 -16,15.999999 0,8.8366 7.1634,16 16,16 z"
     fill="#000000"
     id="path1033-7-6-3"
     style="fill:#ff0000"
     inkscape:export-filename="/home/stadolf/work/takeover/public/to_logo_rgb.png"
     inkscape:export-xdpi="1200.424"
     inkscape:export-ydpi="1200.424" />
  <path
     d="m 22.4,0 h 2 v -2 h -2 z M 9.6,0 v -2 h -2 v 2 z m 12.8,32 v 2 h 2 V 32 Z M 9.6,32 h -2 v 2 h 2 z m 0,-10 h 2 v -2 h -2 z M 0,22 h -2 v 2 H 0 Z M 0,10 V 8 h -2 v 2 z m 9.6,0 v 2 h 2 V 10 Z M 22.4,-2 H 9.6 v 4 h 12.8 z m 2,34 V 0 h -4 V 32 Z M 9.6,34 H 22.4 V 30 H 9.6 Z m -2,-12 v 10 h 4 V 22 Z M 0,24 H 9.6 V 20 H 0 Z M -2,10 V 22 H 2 V 10 Z M 9.6,8 H 0 v 4 h 9.6 z m -2,-8 v 10 h 4 V 0 Z M 54,16 c 0,7.732 -6.268,14 -14,14 v 4 c 9.9411,0 18,-8.0589 18,-18 z M 40,2 c 7.732,0 14,6.26801 14,14 h 4 C 58,6.05887 49.9411,-2 40,-2 Z M 26,16 C 26,8.26801 32.268,2 40,2 V -2 C 30.0589,-2 22,6.05887 22,16 Z M 40,30 C 32.268,30 26,23.732 26,16 h -4 c 0,9.9411 8.0589,18 18,18 z"
     fill="#000000"
     mask="url(#path-1-inside-1_43_12-3-3)"
     id="path1035-5-2"
     transform="translate(25.6,4.7870037)"
     style="fill:#ff0000" />
  <path
     fill-rule="evenodd"
     clip-rule="evenodd"
     d="M 15.2,0.787004 H 28 V 32.787003 H 15.2 v -10 H 5.6 v -12 h 9.6 z m 30.4,31.999999 c 8.8366,0 15.999998,-7.1634 15.999998,-16 C 61.599998,7.9504427 54.4366,0.787004 45.6,0.787004 c -8.8366,0 -16,7.1634387 -16,15.999999 0,8.8366 7.1634,16 16,16 z"
     fill="#000000"
     id="path1033-7-6-2"
     style="fill:#00ff00"
     inkscape:export-filename="/home/stadolf/work/takeover/public/to_logo_rgb.png"
     inkscape:export-xdpi="1200.424"
     inkscape:export-ydpi="1200.424" />
  <path
     fill-rule="evenodd"
     clip-rule="evenodd"
     d="m 12.170392,0 h 12.8 v 31.999994 h -12.8 v -10 h -9.6 V 9.9999937 h 9.6 z m 30.4,31.999994 c 8.8366,0 16,-7.1634 16,-16 0,-8.8365603 -7.1634,-15.999994 -16,-15.999994 -8.8366,0 -16,7.1634337 -16,15.999994 0,8.8366 7.1634,16 16,16 z"
     fill="#000000"
     id="path1033-7-9"
     style="fill:#0000ff"
     inkscape:export-filename="/home/stadolf/work/takeover/public/to_logo_rgb.png"
     inkscape:export-xdpi="1200.424"
     inkscape:export-ydpi="1200.424" />
  <path
     fill-rule="evenodd"
     clip-rule="evenodd"
     d="m 13.906144,1.8974799 h 12.8 V 33.897478 h -12.8 v -10 h -9.6 v -12 h 9.6 z m 30.4,31.9999981 c 8.8366,0 16,-7.1634 16,-16 0,-8.8365603 -7.1634,-15.9999981 -16,-15.9999981 -8.8366,0 -16,7.1634378 -16,15.9999981 0,8.8366 7.1634,16 16,16 z"
     fill="#000000"
     id="path1033-7-9-6"
     style="fill:#0000ff"
     inkscape:export-filename="/home/stadolf/work/takeover/public/to_logo_rgb.png"
     inkscape:export-xdpi="1200.424"
     inkscape:export-ydpi="1200.424" />
  <path
     fill-rule="evenodd"
     clip-rule="evenodd"
     d="m 13.119134,0.787004 h 12.8 v 32 h -12.8 v -10 h -9.6 v -12 h 9.6 z m 30.4,32 c 8.8366,0 16,-7.1634 16,-16 0,-8.8365603 -7.1634,-16 -16,-16 -8.8366,0 -16,7.1634397 -16,16 0,8.8366 7.1634,16 16,16 z"
     fill="#000000"
     id="path1033"
     style="fill:#ffffff;fill-opacity:1"
     inkscape:export-filename="/home/stadolf/work/takeover/public/to_logo_rgb.png"
     inkscape:export-xdpi="1200.424"
     inkscape:export-ydpi="1200.424" />
</svg>
