<svg width="56" height="32" viewBox="0 0 56 32" fill="none" xmlns="http://www.w3.org/2000/svg">
  <mask id="path-1-inside-1_43_12" fill="white">
    <path fill-rule="evenodd" clip-rule="evenodd"
      d="M9.6 0H22.4V32H9.6V22H0V10H9.6V0ZM40 32C48.8366 32 56 24.8366 56 16C56 7.16344 48.8366 0 40 0C31.1634 0 24 7.16344 24 16C24 24.8366 31.1634 32 40 32Z" />
  </mask>
  <path fill-rule="evenodd" clip-rule="evenodd"
    d="M9.6 0H22.4V32H9.6V22H0V10H9.6V0ZM40 32C48.8366 32 56 24.8366 56 16C56 7.16344 48.8366 0 40 0C31.1634 0 24 7.16344 24 16C24 24.8366 31.1634 32 40 32Z"
    fill="#FFFFFF" />
  <path
    d="M22.4 0H24.4V-2H22.4V0ZM9.6 0V-2H7.6V0H9.6ZM22.4 32V34H24.4V32H22.4ZM9.6 32H7.6V34H9.6V32ZM9.6 22H11.6V20H9.6V22ZM0 22H-2V24H0V22ZM0 10V8H-2V10H0ZM9.6 10V12H11.6V10H9.6ZM22.4 -2H9.6V2H22.4V-2ZM24.4 32V0H20.4V32H24.4ZM9.6 34H22.4V30H9.6V34ZM7.6 22V32H11.6V22H7.6ZM0 24H9.6V20H0V24ZM-2 10V22H2V10H-2ZM9.6 8H0V12H9.6V8ZM7.6 0V10H11.6V0H7.6ZM54 16C54 23.732 47.732 30 40 30V34C49.9411 34 58 25.9411 58 16H54ZM40 2C47.732 2 54 8.26801 54 16H58C58 6.05887 49.9411 -2 40 -2V2ZM26 16C26 8.26801 32.268 2 40 2V-2C30.0589 -2 22 6.05887 22 16H26ZM40 30C32.268 30 26 23.732 26 16H22C22 25.9411 30.0589 34 40 34V30Z"
    fill="#FFFFFF" mask="url(#path-1-inside-1_43_12)" />
</svg>