<?xml version="1.0" encoding="UTF-8" standalone="no"?>
<svg
   width="19.992517mm"
   height="19.992517mm"
   viewBox="0 0 75.562272 75.562271"
   fill="none"
   version="1.1"
   id="svg881"
   sodipodi:docname="to_logo_icon.svg"
   inkscape:version="1.1 (c68e22c387, 2021-05-23)"
   xmlns:inkscape="http://www.inkscape.org/namespaces/inkscape"
   xmlns:sodipodi="http://sodipodi.sourceforge.net/DTD/sodipodi-0.dtd"
   xmlns="http://www.w3.org/2000/svg"
   xmlns:svg="http://www.w3.org/2000/svg">
  <defs
     id="defs885" />
  <sodipodi:namedview
     id="namedview883"
     pagecolor="#ffffff"
     bordercolor="#666666"
     borderopacity="1.0"
     inkscape:pageshadow="2"
     inkscape:pageopacity="0.0"
     inkscape:pagecheckerboard="0"
     showgrid="false"
     units="mm"
     fit-margin-top="0"
     fit-margin-left="0"
     fit-margin-right="0"
     fit-margin-bottom="0"
     inkscape:zoom="3.2068397"
     inkscape:cx="-193.02492"
     inkscape:cy="-13.87659"
     inkscape:window-width="3440"
     inkscape:window-height="1376"
     inkscape:window-x="0"
     inkscape:window-y="32"
     inkscape:window-maximized="1"
     inkscape:current-layer="svg881"
     inkscape:document-units="mm" />
  <mask
     id="path-1-inside-1_43_12"
     fill="#ffffff">
    <path
       fill-rule="evenodd"
       clip-rule="evenodd"
       d="M 9.6,0 H 22.4 V 32 H 9.6 V 22 H 0 V 10 H 9.6 Z M 40,32 C 48.8366,32 56,24.8366 56,16 56,7.16344 48.8366,0 40,0 31.1634,0 24,7.16344 24,16 c 0,8.8366 7.1634,16 16,16 z"
       id="path874" />
  </mask>
  <circle
     style="opacity:1;fill:#000000;fill-opacity:1;stroke:none;stroke-width:23.8202;stroke-linecap:round;stroke-linejoin:round;paint-order:stroke fill markers"
     id="path1211"
     cx="37.781136"
     cy="37.781136"
     r="37.781136" />
  <path
     fill-rule="evenodd"
     clip-rule="evenodd"
     d="m 19.381139,21.781137 h 12.8 v 31.999998 h -12.8 v -10 H 9.7811336 V 31.781137 h 9.6000054 z m 30.4,31.999998 c 8.8366,0 16,-7.1634 16,-16 0,-8.836558 -7.1634,-15.999998 -16,-15.999998 -8.8366,0 -16,7.16344 -16,15.999998 0,8.8366 7.1634,16 16,16 z"
     fill="#ffffff"
     id="path877" />
  <path
     d="m 22.4,0 h 2 v -2 h -2 z M 9.6,0 v -2 h -2 v 2 z m 12.8,32 v 2 h 2 V 32 Z M 9.6,32 h -2 v 2 h 2 z m 0,-10 h 2 v -2 h -2 z M 0,22 h -2 v 2 H 0 Z M 0,10 V 8 h -2 v 2 z m 9.6,0 v 2 h 2 V 10 Z M 22.4,-2 H 9.6 v 4 h 12.8 z m 2,34 V 0 h -4 V 32 Z M 9.6,34 H 22.4 V 30 H 9.6 Z m -2,-12 v 10 h 4 V 22 Z M 0,24 H 9.6 V 20 H 0 Z M -2,10 V 22 H 2 V 10 Z M 9.6,8 H 0 v 4 h 9.6 z m -2,-8 v 10 h 4 V 0 Z M 54,16 c 0,7.732 -6.268,14 -14,14 v 4 c 9.9411,0 18,-8.0589 18,-18 z M 40,2 c 7.732,0 14,6.26801 14,14 h 4 C 58,6.05887 49.9411,-2 40,-2 Z M 26,16 C 26,8.26801 32.268,2 40,2 V -2 C 30.0589,-2 22,6.05887 22,16 Z M 40,30 C 32.268,30 26,23.732 26,16 h -4 c 0,9.9411 8.0589,18 18,18 z"
     fill="#ffffff"
     mask="url(#path-1-inside-1_43_12)"
     id="path879"
     transform="translate(9.7811346,21.781136)" />
</svg>
